<svg width="10" height="10" viewBox="0 0 10 10" fill="none" xmlns="http://www.w3.org/2000/svg">
<mask id="mask0_4435_7059" style="mask-type:alpha" maskUnits="userSpaceOnUse" x="0" y="0" width="10" height="10">
<rect width="10" height="10" fill="#D9D9D9"/>
</mask>
<g mask="url(#mask0_4435_7059)">
<path d="M2.49999 9.16406C2.27082 9.16406 2.07464 9.08247 1.91145 8.91927C1.74825 8.75608 1.66666 8.5599 1.66666 8.33073V4.16406C1.66666 3.9349 1.74825 3.73872 1.91145 3.57552C2.07464 3.41233 2.27082 3.33073 2.49999 3.33073H2.91666V2.4974C2.91666 1.92101 3.11978 1.42969 3.52603 1.02344C3.93228 0.617188 4.4236 0.414062 4.99999 0.414062C5.57638 0.414062 6.0677 0.617188 6.47395 1.02344C6.8802 1.42969 7.08332 1.92101 7.08332 2.4974V3.33073H7.49999C7.72916 3.33073 7.92534 3.41233 8.08853 3.57552C8.25173 3.73872 8.33332 3.9349 8.33332 4.16406V8.33073C8.33332 8.5599 8.25173 8.75608 8.08853 8.91927C7.92534 9.08247 7.72916 9.16406 7.49999 9.16406H2.49999ZM2.49999 8.33073H7.49999V4.16406H2.49999V8.33073ZM4.99999 7.08073C5.22916 7.08073 5.42534 6.99913 5.58853 6.83594C5.75173 6.67274 5.83332 6.47656 5.83332 6.2474C5.83332 6.01823 5.75173 5.82205 5.58853 5.65885C5.42534 5.49566 5.22916 5.41406 4.99999 5.41406C4.77082 5.41406 4.57464 5.49566 4.41145 5.65885C4.24825 5.82205 4.16666 6.01823 4.16666 6.2474C4.16666 6.47656 4.24825 6.67274 4.41145 6.83594C4.57464 6.99913 4.77082 7.08073 4.99999 7.08073ZM3.74999 3.33073H6.24999V2.4974C6.24999 2.15017 6.12846 1.85503 5.88541 1.61198C5.64235 1.36892 5.34721 1.2474 4.99999 1.2474C4.65277 1.2474 4.35763 1.36892 4.11457 1.61198C3.87152 1.85503 3.74999 2.15017 3.74999 2.4974V3.33073Z" fill="#A4A4A4"/>
</g>
</svg>
