<svg width="12" height="12" viewBox="0 0 12 12" fill="none" xmlns="http://www.w3.org/2000/svg">
<mask id="mask0_4435_7072" style="mask-type:alpha" maskUnits="userSpaceOnUse" x="0" y="0" width="12" height="12">
<rect width="12" height="12" fill="#D9D9D9"/>
</mask>
<g mask="url(#mask0_4435_7072)">
<path d="M5.52328 8.48329L7.37085 5.98324H5.94278L6.20161 3.6949L4.5504 6.38648H5.79104L5.52328 8.48329ZM4.9699 7.19295H3.86314C3.72034 7.19295 3.61472 7.1207 3.54629 6.97621C3.47786 6.83172 3.4853 6.69226 3.5686 6.55785L6.23732 2.22309C6.29682 2.12901 6.37417 2.06348 6.46938 2.02652C6.56458 1.98955 6.66276 1.99123 6.76392 2.03156C6.86507 2.07188 6.93945 2.14245 6.98705 2.24325C7.03466 2.34406 7.05251 2.45159 7.04061 2.56584L6.75499 5.17678H8.13844C8.29315 5.17678 8.40174 5.25406 8.46422 5.40864C8.5267 5.56321 8.50736 5.7077 8.4062 5.84211L5.46973 9.81396C5.40427 9.90133 5.32394 9.95845 5.22874 9.98534C5.13353 10.0122 5.0413 10.0021 4.95205 9.95509C4.86279 9.90805 4.79288 9.8358 4.7423 9.73836C4.69172 9.64091 4.67239 9.53506 4.68429 9.42081L4.9699 7.19295Z" fill="white"/>
</g>
</svg>
