<svg width="22" height="16" viewBox="0 0 22 16" fill="none" xmlns="http://www.w3.org/2000/svg">
<path d="M1 13C0.716667 13 0.479167 12.9042 0.2875 12.7125C0.0958333 12.5208 0 12.2833 0 12C0 11.7167 0.0958333 11.4792 0.2875 11.2875C0.479167 11.0958 0.716667 11 1 11H3C3.28333 11 3.52083 11.0958 3.7125 11.2875C3.90417 11.4792 4 11.7167 4 12C4 12.2833 3.90417 12.5208 3.7125 12.7125C3.52083 12.9042 3.28333 13 3 13H1ZM6.05 7.05C5.86667 7.23333 5.63333 7.325 5.35 7.325C5.06667 7.325 4.83333 7.23333 4.65 7.05L3.225 5.625C3.04167 5.44167 2.95 5.2125 2.95 4.9375C2.95 4.6625 3.04167 4.425 3.225 4.225C3.425 4.025 3.65833 3.925 3.925 3.925C4.19167 3.925 4.425 4.025 4.625 4.225L6.05 5.65C6.23333 5.83333 6.325 6.06667 6.325 6.35C6.325 6.63333 6.23333 6.86667 6.05 7.05ZM7.5 16C7.08333 16 6.72917 15.8542 6.4375 15.5625C6.14583 15.2708 6 14.9167 6 14.5C6 14.0833 6.14583 13.7292 6.4375 13.4375C6.72917 13.1458 7.08333 13 7.5 13H14.5C14.9167 13 15.2708 13.1458 15.5625 13.4375C15.8542 13.7292 16 14.0833 16 14.5C16 14.9167 15.8542 15.2708 15.5625 15.5625C15.2708 15.8542 14.9167 16 14.5 16H7.5ZM11 5C10.7167 5 10.4792 4.90417 10.2875 4.7125C10.0958 4.52083 10 4.28333 10 4V1C10 0.716667 10.0958 0.479167 10.2875 0.2875C10.4792 0.0958333 10.7167 0 11 0C11.2833 0 11.5208 0.0958333 11.7125 0.2875C11.9042 0.479167 12 0.716667 12 1V4C12 4.28333 11.9042 4.52083 11.7125 4.7125C11.5208 4.90417 11.2833 5 11 5ZM15.95 7.05C15.7667 6.86667 15.675 6.63333 15.675 6.35C15.675 6.06667 15.7667 5.83333 15.95 5.65L17.375 4.225C17.5583 4.04167 17.7875 3.95 18.0625 3.95C18.3375 3.95 18.575 4.04167 18.775 4.225C18.975 4.425 19.075 4.65833 19.075 4.925C19.075 5.19167 18.975 5.425 18.775 5.625L17.35 7.05C17.1667 7.23333 16.9333 7.325 16.65 7.325C16.3667 7.325 16.1333 7.23333 15.95 7.05ZM19 13C18.7167 13 18.4792 12.9042 18.2875 12.7125C18.0958 12.5208 18 12.2833 18 12C18 11.7167 18.0958 11.4792 18.2875 11.2875C18.4792 11.0958 18.7167 11 19 11H21C21.2833 11 21.5208 11.0958 21.7125 11.2875C21.9042 11.4792 22 11.7167 22 12C22 12.2833 21.9042 12.5208 21.7125 12.7125C21.5208 12.9042 21.2833 13 21 13H19Z" fill="#191919"/>
</svg>
